<svg xmlns="http://www.w3.org/2000/svg" viewBox="0 0 615.167 153.75">
  <g fill="#31B7E9">
    <path d="M65.73 76.706L21.887 32.864 0 54.75l21.888 21.956L0 98.593l21.888 21.887"/>
    <path d="M131.457 76.706L54.75 0 32.866 21.887l54.75 54.82-54.75 54.75 21.886 21.887"/>
  </g>
  <path d="M160.965 99.205h1.82l3.82 15.917 5.548-15.917h1.273l5.73 15.644 3.82-15.65h1.728l-4.548 18.19h-1.818l-5.55-15.46-5.456 15.46h-1.91l-4.457-18.19zm43.84 0c4.82 0 7.186 2.73 7.186 8.277v1.273h-13.28c0 4.73 2.46 7.095 7.28 7.095 2 0 3.73-.273 5.28-.91v1.546c-1.54.545-3.27.91-5.27.91-6 0-9-3.093-9-9.278-.09-5.912 2.55-8.913 7.82-8.913zm-6.185 7.912h11.643c-.09-4.184-1.91-6.367-5.457-6.367-3.912 0-5.912 2.093-6.186 6.367zm27.287-14.46h1.73v7.457c2.09-.545 3.91-.91 5.456-.91 5.275 0 8.004 2.912 8.004 8.732 0 6.276-2.82 9.46-8.37 9.46-2.545 0-4.728-.273-6.73-.73v-24.01h-.09zm1.73 22.555c1.817.364 3.454.546 4.82.546 4.546 0 6.82-2.638 6.82-7.914 0-4.548-2.09-6.82-6.275-6.82-1.637 0-3.366.27-5.366.908v13.28zm57.847 1.638c-1.456.364-3 .545-4.64.545-5.912 0-8.823-3.183-8.823-9.46 0-5.82 2.92-8.73 8.83-8.73 1.64 0 3.19.182 4.64.545v1.546c-1.54-.363-3.09-.545-4.55-.545-4.73 0-7.09 2.37-7.09 7.19 0 5.28 2.37 7.83 7.1 7.83 1.46 0 2.91-.18 4.55-.54v1.64zm12.642-8.55c0-6.185 2.73-9.278 8.186-9.278 5.457 0 8.187 3.093 8.187 9.278 0 6.185-2.73 9.277-8.19 9.277-5.46 0-8.1-3.092-8.19-9.277zm8.186 7.73c4.275 0 6.458-2.545 6.458-7.73 0-5.093-2.183-7.64-6.458-7.64s-6.458 2.547-6.458 7.64c.09 5.094 2.183 7.73 6.458 7.73zm22.102 1.366v-18.19h1.273l.182 2.273c2.27-1.55 4.45-2.28 6.54-2.28 4.27 0 6.36 1.91 6.36 5.73v12.46h-1.64v-12.46c0-2.73-1.55-4-4.73-4-2.09 0-4.19.72-6.19 2.27v14.19h-1.82zm29.198-21.102h1.272l.364 2.91h5.275v1.547h-5.094v11.46c0 2.37.81 3.55 2.54 3.55h2.55v1.55h-2.55c-2.82 0-4.28-1.63-4.28-4.91V96.3h-.09zm19.918 21.102v-18.19h1.273l.183 3c1.73-2 3.73-3 5.912-3v1.455c-2.092 0-4.002 1.1-5.55 3.19v13.55h-1.817zm19.192-9.096c0-6.185 2.73-9.278 8.187-9.278 5.45 0 8.18 3.093 8.18 9.278 0 6.185-2.73 9.277-8.19 9.277-5.46 0-8.19-3.092-8.19-9.277zm8.186 7.73c4.273 0 6.457-2.545 6.457-7.73 0-5.093-2.184-7.64-6.457-7.64-4.275 0-6.458 2.547-6.458 7.64 0 5.094 2.183 7.73 6.458 7.73zM429.1 92.656v24.74h-1.727v-24.74h1.728zm32.837 7.276c2.002-.455 4.275-.728 6.73-.728 5.64 0 8.46 2.91 8.46 8.64 0 6.368-2.82 9.55-8.46 9.55-1.364 0-3-.27-4.912-.908v7.458h-1.728V99.932h-.09zm1.818 14.826c1.73.637 3.366.91 4.912.91 4.548 0 6.82-2.64 6.82-7.823 0-4.64-2.272-7.004-6.73-7.004-1.545 0-3.182.19-4.91.46v13.46h-.092zm26.287-2.548c0-3.637 2.273-5.457 6.912-5.457 1.638 0 3.366.092 5.276.364v-2.273c0-2.82-1.73-4.184-5.094-4.184-1.91 0-3.82.273-5.73.91v-1.547c1.91-.545 3.82-.91 5.73-.91 4.548 0 6.82 1.91 6.82 5.64v12.552h-1.09l-.364-1.82c-2.183 1.184-4.275 1.82-6.367 1.82-4.092.09-6.093-1.637-6.093-5.094zm6.912-3.82c-3.456 0-5.185 1.274-5.185 3.82 0 2.457 1.45 3.64 4.36 3.64 2.09 0 4.18-.546 6.09-1.73v-5.365c-1.91-.273-3.64-.364-5.28-.364zm21.83 9.006v-18.19h1.273l.182 2.273c2.27-1.55 4.45-2.28 6.54-2.28 4.27 0 6.36 1.91 6.36 5.73v12.46h-1.73v-12.46c0-2.73-1.55-4-4.73-4-2.1 0-4.19.72-6.19 2.27v14.19h-1.73zm36.2-18.19c4.82 0 7.187 2.73 7.187 8.276v1.273H548.9c0 4.73 2.455 7.095 7.276 7.095 2 0 3.73-.273 5.275-.91v1.546c-1.54.545-3.27.91-5.27.91-6 0-9-3.093-9-9.278-.09-5.912 2.55-8.913 7.82-8.913zm-6.093 7.91h11.65c-.09-4.183-1.91-6.366-5.55-6.366-3.91 0-5.91 2.093-6.09 6.367zm29.29-14.46v24.74h-1.73v-24.74h1.73z" fill="#FFF"/>
  <path d="M202.896 48.178v19.464c0 5.458-1.637 9.096-4.912 11.006-3.274 1.91-9.004 2.91-17.19 2.91h-19.92V33.626h19.83c7.914 0 13.552 1 17.008 3 3.456 2.003 5.184 5.823 5.184 11.553zm-11.188 19.465V47.906c0-2.274-.91-3.912-2.73-4.82-1.817-.91-4.546-1.365-8.275-1.365h-8.55v31.57h8.186c4.27 0 7.27-.36 8.91-1 1.63-.63 2.45-2.18 2.45-4.64zm30.835-26.105h-10.46v-8.73h10.46v8.73zm0 40.02h-10.46V45.814h10.46V81.56zM255.013 54h-3.547c-2.91 0-5.003.455-6.458 1.364-1.455.91-2.183 2.456-2.183 4.73V81.56h-10.46V45.812h10.007v6.276c.09-1.73 1-3.366 3-4.82 1.91-1.457 4.003-2.184 6.095-2.184h3.73V54h-.185zm38.02 12.55h-22.56v3.275c0 2 .73 3.456 2.093 4.366 1.365.91 4.003 1.37 7.823 1.37 3.45 0 7.36-.54 11.64-1.54v6.82c-4.37.91-8.92 1.37-13.65 1.37-12.28 0-18.47-3.82-18.47-11.55V57.82c0-4.548 1.45-7.822 4.27-9.823 2.91-2 7.18-2.91 12.82-2.91 5.37 0 9.37.91 12 2.82 2.636 1.91 3.91 5.184 3.91 10.004v8.65h.09zm-9.914-6.183v-5.184c0-1.092-.46-2-1.37-2.64-.91-.635-2.46-.908-4.73-.908-2.55 0-4.28.273-5.1.91-.91.636-1.37 1.455-1.37 2.638v5.184h12.55zm46.93 20.647c-4.19.818-8.19 1.273-11.83 1.273-1.73 0-3.19 0-4.28-.09-1.09-.092-2.37-.183-4-.365-1.64-.182-2.91-.637-3.91-1.183-1-.55-2-1.28-2.91-2.1-1-.82-1.73-2-2.19-3.46-.46-1.46-.73-3.19-.73-5.1v-11.9c0-1.73.18-3.37.63-4.73.36-1.37.91-2.46 1.54-3.37.635-.91 1.454-1.73 2.544-2.37 1.093-.63 2.093-1.09 3.003-1.45.91-.36 2.09-.54 3.547-.82 1.457-.18 2.64-.28 3.64-.37h3.82c2.64 0 6.186.46 10.55 1.37v7.092c-5-1.183-8.73-1.73-11.37-1.73-4.82 0-7.273 1.64-7.273 5.004v13.1c0 3.82 2.64 5.73 8.005 5.73 2.46 0 6.19-.546 11.1-1.638v7.095h.09zm29.38.91c-2 .272-3.91.363-5.82.363-1.64 0-3.1-.09-4.28-.182-1.18-.09-2.46-.455-3.82-.91-1.28-.454-2.37-1.09-3.28-1.818-.82-.728-1.55-1.82-2.09-3.274-.55-1.364-.82-3.092-.82-5.002V52.46h-7.01v-6.64h7V35.45h10.46v10.37h9.55v6.64h-9.55v16.82c0 2.456.36 4.093 1.09 5.002.73.82 2.27 1.274 4.73 1.274.82 0 2.09-.09 3.73-.364v6.73h.09zm54.93-.364h-11.37l-4.19-12.644h-17l-4.09 12.644h-11.1l17.28-47.935h13.64l16.83 47.935zm-18.01-20.375l-5.92-18.01h-.27l-5.91 18.01h12.09zm57.4 20.375h-10.1v-4.094c-.82 1.364-1.55 2.273-2.19 2.91-.63.638-1.63 1.092-3 1.365-1.36.37-3.27.46-5.73.46-5.91 0-9.82-.73-11.64-2.27-1.82-1.54-2.73-4.91-2.73-10.18V55.82c0-4 1.09-6.82 3.37-8.46 2.18-1.545 5.73-2.363 10.55-2.363 3.45 0 5.82.364 7.28 1 1.36.637 2.63 1.91 3.91 3.73v-19.92h10.46V81.56h-.18zm-10.46-10.734v-14.37c0-1.73-.46-3-1.37-3.73-.91-.727-2.91-1-6.01-1-3.19 0-5.19.364-6.01 1-.72.637-1.18 2-1.18 4.094v13.643c0 2 .37 3.275 1.19 4.002.73.728 2.545 1.09 5.365 1.09 3.363 0 5.546-.272 6.55-.91 1-.636 1.453-1.91 1.453-3.82zm73.67 10.734H506.5V56.82c0-2.184-.272-3.55-.73-4.186-.544-.636-1.908-.91-4.09-.91-2.912 0-4.64.274-5.276.91-.64.637-1.01 2-1.01 4.185v24.74h-10.55V56.82c0-2.184-.273-3.55-.73-4.186-.545-.636-1.908-.91-4.09-.91-2.91 0-4.64.274-5.277.91-.638.637-1 2-1 4.185v24.74H463.3V45.81h10.46v4.366c.637-3.366 4.094-5.095 10.278-5.095 3.273 0 5.82.46 7.458 1.37 1.637.91 2.73 2.18 3.366 4 .545-1.82 1.637-3.18 3.273-4 1.637-.82 4.094-1.27 7.55-1.27 4.547 0 7.55.82 9.096 2.46s2.28 4.28 2.28 7.82v26.1h-.09zm20.19-40.022h-10.46v-8.73h10.46v8.73zm0 40.02h-10.46V45.814h10.46V81.56zm43.2.002H569.9V56.73c0-2.002-.362-3.275-1-4.003-.636-.728-2.182-1-4.638-1-3 0-4.912.363-5.73 1-.818.636-1.183 2-1.183 4.002v24.83h-10.46V45.81h10.36v4.366c.82-3.367 4.55-5.096 11.09-5.096 4.64 0 7.73.818 9.46 2.547 1.73 1.73 2.54 4.275 2.54 7.73v26.2z" fill="#FDFEFE"/>
</svg>
